<svg width="11" height="11" viewBox="0 0 11 11" fill="none" xmlns="http://www.w3.org/2000/svg">
<path d="M9.00002 2.00018H2.52502C2.39242 2.00018 2.26524 1.9475 2.17147 1.85374C2.0777 1.75997 2.02502 1.63279 2.02502 1.50018C2.02502 1.36757 2.0777 1.2404 2.17147 1.14663C2.26524 1.05286 2.39242 1.00018 2.52502 1.00018H9.50002C9.63263 1.00018 9.75981 1.05286 9.85358 1.14663C9.94735 1.2404 10 1.36757 10 1.50018V8.50018C10 8.63279 9.94735 8.75997 9.85358 8.85374C9.75981 8.9475 9.63263 9.00018 9.50002 9.00018C9.36742 9.00018 9.24024 8.9475 9.14647 8.85374C9.0527 8.75997 9.00002 8.63279 9.00002 8.50018V2.00018Z" fill="black" stroke="black" stroke-width="0.192"/>
<path d="M9.14602 1.14602C9.23991 1.05213 9.36725 0.99939 9.50002 0.99939C9.6328 0.99939 9.76013 1.05213 9.85402 1.14602C9.94791 1.23991 10.0007 1.36725 10.0007 1.50002C10.0007 1.6328 9.94791 1.76013 9.85402 1.85402L1.35402 10.354C1.30753 10.4005 1.25234 10.4374 1.1916 10.4625C1.13087 10.4877 1.06577 10.5007 1.00002 10.5007C0.934277 10.5007 0.869177 10.4877 0.808438 10.4625C0.747698 10.4374 0.692509 10.4005 0.646021 10.354C0.599533 10.3075 0.562657 10.2523 0.537498 10.1916C0.512339 10.1309 0.49939 10.0658 0.49939 10C0.49939 9.93428 0.512339 9.86918 0.537498 9.80844C0.562657 9.7477 0.599533 9.69251 0.646021 9.64602L9.14602 1.14602Z" fill="black" stroke="black" stroke-width="0.192"/>
</svg>
