<svg width="40" height="40" viewBox="0 0 40 40" fill="none" xmlns="http://www.w3.org/2000/svg">
<path d="M32.9278 10.5812L22.3568 30.5484C21.5925 31.9924 21.2102 32.7144 20.7003 32.9504C20.2562 33.156 19.7442 33.156 19.3 32.9504C18.79 32.7144 18.4078 31.9924 17.6433 30.5484L7.07249 10.5812C6.38866 9.28949 6.04666 8.64366 6.11583 8.11666C6.17616 7.65683 6.42533 7.24283 6.80349 6.97433C7.23683 6.66683 7.96766 6.66683 9.42916 6.66683L30.571 6.66683C32.0326 6.66683 32.7634 6.66683 33.1967 6.97433C33.5749 7.24283 33.8241 7.65683 33.8845 8.11666C33.9536 8.64366 33.6117 9.28949 32.9278 10.5812Z" stroke="black" stroke-width="6.4" stroke-linecap="round" stroke-linejoin="round"/>
</svg>
