<svg width="48" height="48" viewBox="0 0 48 48" fill="none" xmlns="http://www.w3.org/2000/svg">
<g clip-path="url(#clip0_203_168)">
<path d="M48 24C48 10.7452 37.2548 0 24 0C10.7452 0 0 10.7452 0 24C0 37.2548 10.7452 48 24 48C37.2548 48 48 37.2548 48 24Z" fill="black"/>
<path d="M35.837 13.0315C35.7943 12.5711 35.4301 12.2063 34.9701 12.1638L26.3429 11.3725C26.0593 11.3467 25.7778 11.4489 25.5769 11.65L11.6494 25.5775C11.2749 25.9521 11.2749 26.5587 11.6494 26.9333L21.0665 36.3507C21.441 36.7253 22.0477 36.7253 22.4222 36.3507L36.3505 22.423C36.5514 22.2221 36.6532 21.9412 36.6277 21.6579L35.837 13.0315ZM32.9981 16.8109C32.499 17.3099 31.69 17.3099 31.19 16.8109C30.6908 16.3112 30.6908 15.5017 31.19 15.0024C31.69 14.5034 32.499 14.5026 32.9981 15.0024C33.4973 15.5017 33.4973 16.3118 32.9981 16.8109Z" fill="white" stroke="white" stroke-width="0.0886697"/>
</g>
<defs>
<clipPath id="clip0_203_168">
<rect width="48" height="48" fill="white"/>
</clipPath>
</defs>
</svg>
