<svg width="48" height="48" viewBox="0 0 48 48" fill="none" xmlns="http://www.w3.org/2000/svg">
<g clip-path="url(#clip0_203_185)">
<path d="M24 4C20.0444 4 16.1776 5.17298 12.8886 7.37061C9.59962 9.56824 7.03617 12.6918 5.52242 16.3463C4.00867 20.0009 3.6126 24.0222 4.3843 27.9018C5.15601 31.7814 7.06082 35.3451 9.85787 38.1421C12.6549 40.9392 16.2186 42.844 20.0982 43.6157C23.9778 44.3874 27.9992 43.9913 31.6537 42.4776C35.3082 40.9638 38.4318 38.4004 40.6294 35.1114C42.827 31.8224 44 27.9556 44 24C44 21.3736 43.4827 18.7728 42.4776 16.3463C41.4725 13.9198 39.9993 11.715 38.1421 9.85786C36.285 8.00069 34.0802 6.5275 31.6537 5.52241C29.2272 4.51732 26.6264 4 24 4ZM35.5 33.18L33 35.68C32.7978 35.8803 32.5246 35.9927 32.24 35.9927C31.9554 35.9927 31.6822 35.8803 31.48 35.68L21.48 25.78C20.1646 26.2504 18.7394 26.3211 17.3838 25.9833C16.0283 25.6454 14.803 24.9141 13.8622 23.8813C12.9214 22.8486 12.3072 21.5606 12.0968 20.1795C11.8864 18.7985 12.0894 17.386 12.68 16.12L17.46 20.78L20.72 17.52L16 12.86C17.3195 12.2613 18.789 12.0746 20.2162 12.3244C21.6435 12.5741 22.9623 13.2488 24 14.26C24.9765 15.213 25.6523 16.4313 25.9437 17.7643C26.2352 19.0972 26.1296 20.4864 25.64 21.76L35.52 31.66C35.6317 31.7534 35.7212 31.8705 35.782 32.0027C35.8427 32.135 35.8733 32.2792 35.8714 32.4248C35.8694 32.5703 35.8351 32.7136 35.7709 32.8443C35.7066 32.9749 35.6141 33.0896 35.5 33.18Z" fill="black"/>
</g>
<defs>
<clipPath id="clip0_203_185">
<rect width="48" height="48" fill="white"/>
</clipPath>
</defs>
</svg>
