<svg width="48" height="48" viewBox="0 0 48 48" fill="none" xmlns="http://www.w3.org/2000/svg">
<g clip-path="url(#clip0_203_175)">
<path d="M48 24C48 10.7452 37.2548 0 24 0C10.7452 0 0 10.7452 0 24C0 37.2548 10.7452 48 24 48C37.2548 48 48 37.2548 48 24Z" fill="black"/>
<path d="M34.6355 32.0216C36.582 29.5781 37.7517 26.4777 37.7508 23.1142C37.7517 19.1693 36.147 15.5828 33.5613 12.9997C30.9774 10.4134 27.391 8.80917 23.4462 8.81012C19.5013 8.80917 15.9151 10.4134 13.3315 12.9997C10.7454 15.5828 9.14099 19.1693 9.14188 23.1142C9.14099 27.0587 10.7454 30.6452 13.3315 33.2288C15.9151 35.815 19.5013 37.4193 23.4463 37.4183C26.4693 37.4193 29.2797 36.4743 31.5919 34.8705L35.912 39.1899L38.8581 36.2437L34.6355 32.0216ZM31.2691 30.9373C29.262 32.9412 26.5064 34.1764 23.4462 34.1773C20.3861 34.1764 17.6305 32.9412 15.6231 30.9373C13.6186 28.9297 12.3837 26.1743 12.3828 23.1142C12.3837 20.0541 13.6186 17.2987 15.6231 15.2912C17.6305 13.2869 20.3861 12.052 23.4462 12.0511C26.5064 12.052 29.2619 13.2869 31.2691 15.2912C33.2741 17.2987 34.5089 20.0541 34.5098 23.1142C34.5089 26.1744 33.2741 28.9297 31.2691 30.9373Z" fill="white"/>
<path d="M18.0621 22.7602L17.7241 22.7132C16.8603 22.5911 16.5503 22.2909 16.5503 21.8496C16.5503 21.3518 16.907 20.995 17.555 20.995C18.0901 20.995 18.5689 21.1547 19.0855 21.4928C19.1323 21.5209 19.1794 21.5114 19.2169 21.4644L19.6676 20.7699C19.7052 20.7134 19.6957 20.6759 19.6486 20.6383C19.1418 20.2536 18.3813 19.9998 17.5832 19.9998C16.2686 19.9998 15.4235 20.7698 15.4235 21.9247C15.4235 22.9854 16.1185 23.5773 17.3484 23.7459L17.6864 23.7929C18.569 23.915 18.8506 24.2157 18.8506 24.6755C18.8506 25.2109 18.4094 25.5957 17.6488 25.5957C16.9353 25.5957 16.3249 25.2484 15.9119 24.9197C15.8744 24.8822 15.8181 24.8822 15.7805 24.9292L15.1984 25.6051C15.1609 25.6521 15.1796 25.7082 15.2171 25.7462C15.7147 26.2155 16.6253 26.5908 17.5645 26.5908C19.151 26.5908 19.9681 25.7462 19.9681 24.61C19.9681 23.5112 19.2919 22.9294 18.0621 22.7602Z" fill="white"/>
<path d="M25.161 20.103H21.1613C21.105 20.103 21.0675 20.1405 21.0675 20.197V26.3937C21.0675 26.4503 21.105 26.4878 21.1613 26.4878H25.161C25.2175 26.4878 25.255 26.4503 25.255 26.3937V25.5866C25.255 25.5301 25.2175 25.4926 25.161 25.4926H22.2317L22.1754 25.436V23.8214L22.2317 23.7649H24.7009C24.7574 23.7649 24.795 23.7274 24.795 23.6708V22.8633C24.795 22.8072 24.7574 22.7697 24.7009 22.7697H22.2317L22.1754 22.7132V21.1547L22.2317 21.0986H25.161C25.2175 21.0986 25.255 21.0606 25.255 21.0046V20.197C25.255 20.1405 25.2175 20.103 25.161 20.103Z" fill="white"/>
<path d="M28.6548 19.9998C27.5562 19.9998 26.73 20.5257 26.4015 21.5398C26.2699 21.9341 26.2324 22.2909 26.2324 23.2955C26.2324 24.3002 26.2699 24.6569 26.4015 25.0512C26.73 26.0654 27.5563 26.5908 28.6548 26.5908C29.763 26.5908 30.5886 26.0654 30.9178 25.0512C31.0489 24.6569 31.0869 24.3002 31.0869 23.2955C31.0869 22.2908 31.0489 21.9341 30.9178 21.5398C30.5886 20.5257 29.7629 19.9998 28.6548 19.9998ZM29.847 24.7601C29.6689 25.2764 29.2936 25.5957 28.6547 25.5957C28.0257 25.5957 27.65 25.2764 27.4717 24.7601C27.3966 24.5254 27.3591 24.1967 27.3591 23.2956C27.3591 22.3845 27.3966 22.0653 27.4717 21.8306C27.6501 21.3142 28.0258 20.995 28.6547 20.995C29.2936 20.995 29.6689 21.3142 29.847 21.8306C29.9221 22.0653 29.96 22.3845 29.96 23.2956C29.9601 24.1967 29.9221 24.5254 29.847 24.7601Z" fill="white"/>
</g>
<defs>
<clipPath id="clip0_203_175">
<rect width="48" height="48" fill="white"/>
</clipPath>
</defs>
</svg>
