<svg width="50" height="48" viewBox="0 0 50 48" fill="none" xmlns="http://www.w3.org/2000/svg">
<g clip-path="url(#clip0_178_158)">
<path d="M49.8117 24C49.8117 10.7452 38.7421 0 25.087 0C11.432 0 0.362335 10.7452 0.362335 24C0.362335 37.2548 11.432 48 25.087 48C38.7421 48 49.8117 37.2548 49.8117 24Z" fill="black"/>
<path d="M33.3632 34.0372H29.9943C29.8727 34.0372 29.7734 33.9409 29.7734 33.8228V33.0268C29.7734 32.9088 29.674 32.8123 29.5525 32.8123H24.8386C24.717 32.8123 24.6176 32.9088 24.6176 33.0268V33.8228C24.6176 33.9409 24.5183 34.0372 24.3967 34.0372H21.864C21.7425 34.0372 21.6431 34.1337 21.6431 34.2516V35.1724C21.6431 35.2904 21.7425 35.3869 21.864 35.3869H33.363C33.4845 35.3869 33.5839 35.2904 33.5839 35.1724V34.2516C33.5841 34.1339 33.4847 34.0372 33.3632 34.0372Z" fill="white" stroke="white" stroke-width="0.163937"/>
<path d="M39.0231 12.5085H14.984C14.1476 12.5085 13.4672 13.169 13.4672 13.981C13.4672 13.981 13.4672 16.7888 13.4672 17.8218C13.4672 18.3296 13.4284 18.4014 13.7793 18.4014C13.9657 18.4014 14.1721 18.4014 14.381 18.4014C14.6755 18.4014 14.6151 18.3296 14.6151 17.8123C14.6151 16.7817 14.6151 13.981 14.6151 13.981C14.6151 13.787 14.7841 13.6229 14.984 13.6229H39.0231C39.2229 13.6229 39.3919 13.787 39.3919 13.981V28.357H22.2535C22.2535 28.357 21.6495 28.3559 21.6495 29.1141C21.6495 29.5636 21.6495 30.4626 21.6495 30.9123C21.6495 31.6694 22.273 31.6694 22.273 31.6694H39.0231C39.8594 31.6694 40.5401 31.0089 40.5401 30.197V13.981C40.5401 13.1691 39.8596 12.5085 39.0231 12.5085ZM27.0036 30.398C26.626 30.398 26.3199 30.1009 26.3199 29.7346C26.3199 29.3682 26.626 29.071 27.0036 29.071C27.3809 29.071 27.687 29.3682 27.687 29.7346C27.687 30.1009 27.3809 30.398 27.0036 30.398Z" fill="white" stroke="white" stroke-width="0.163937"/>
<path d="M19.3095 19.7166H10.6132C10.0732 19.7166 9.63425 20.1428 9.63425 20.6669V34.5414C9.63425 35.0654 10.0732 35.4918 10.6132 35.4918H19.3095C19.8492 35.4918 20.2885 35.0654 20.2885 34.5414V20.6669C20.2885 20.1428 19.8492 19.7166 19.3095 19.7166ZM13.8886 20.6858H16.034C16.1364 20.6858 16.2195 20.7663 16.2195 20.866C16.2195 20.9654 16.1364 21.046 16.034 21.046H13.8886C13.7861 21.046 13.7032 20.9654 13.7032 20.866C13.7032 20.7663 13.7861 20.6858 13.8886 20.6858ZM14.9483 34.8243C14.6685 34.8243 14.4417 34.6041 14.4417 34.3325C14.4417 34.0609 14.6685 33.8407 14.9483 33.8407C15.2282 33.8407 15.455 34.0609 15.455 34.3325C15.455 34.6041 15.2282 34.8243 14.9483 34.8243ZM19.4473 33.3788C19.4473 33.5056 19.3427 33.6094 19.2151 33.6094H10.7079C10.5801 33.6094 10.4756 33.5056 10.4756 33.3788V21.8497C10.4756 21.7228 10.5802 21.6192 10.7079 21.6192H19.2151C19.3428 21.6192 19.4473 21.7229 19.4473 21.8497V33.3788Z" fill="white" stroke="white" stroke-width="0.163937"/>
</g>
<defs>
<clipPath id="clip0_178_158">
<rect width="49.4494" height="48" fill="white" transform="translate(0.362335)"/>
</clipPath>
</defs>
</svg>
